<?xml version="1.0" encoding="iso-8859-1"?>
<!-- Generator: Adobe Illustrator 19.0.0, SVG Export Plug-In . SVG Version: 6.00 Build 0)  -->
<svg version="1.1" id="Layer_1" xmlns="http://www.w3.org/2000/svg" xmlns:xlink="http://www.w3.org/1999/xlink" x="0px" y="0px"
	 viewBox="0 0 512 512" style="enable-background:new 0 0 512 512;" xml:space="preserve">
<circle style="fill:#0575A5;" cx="256" cy="256" r="256"/>
<path style="fill:#025E90;" d="M504.709,316.631c-59.302-59.308-111.058-111.017-111.322-111.206
	c-0.753-0.504-1.654-0.801-2.634-0.801c-1.713,0-3.195,0.904-4.081,2.253c-0.399-0.576-85.233-85.443-85.804-85.857
	c-0.781-0.566-1.728-0.906-2.78-0.906c-2.691,0-4.925,2.191-4.925,4.92c0,1.787,1.019,3.297,2.437,4.16
	c0.189,0.32,0.415,0.596,0.668,0.868v26.898c0,0-25.697-25.654-26.079-26.007c-0.842-0.768-1.938-1.247-3.159-1.252
	c-0.392-0.52-8.727-8.801-8.973-9.065c-0.883-0.965-2.115-1.592-3.533-1.592c-2.691,0-4.882,2.202-4.882,4.923
	c0,1.805,0.998,3.32,2.429,4.186c0.177,0.3,0.387,0.571,0.625,0.822v12.593l-14.144,12.5c0,0-33.802-34.038-34.319-34.435
	c-0.799-0.625-1.795-1.004-2.898-1.004c-2.703,0-4.931,2.191-4.931,4.92c0,0.904,0.253,1.728,0.686,2.432
	c0.438,0.717,18.335,18.583,19.049,19.008c0.018,0.028,0.044,0.059,0.064,0.095v31.59c-0.435,0.133-0.858,0.333-1.208,0.673
	c-0.522,0.532-0.829,1.28-0.829,2.038v9.692h-3.103c-0.755,0-1.805,0.422-2.317,0.975l-17.185,17.152
	c-0.509,0.548-0.937,1.564-0.937,2.314v3.146h-9.692c-0.776,0-1.5,0.261-2.028,0.832c-0.351,0.323-0.568,0.737-0.709,1.172h-19.82
	c-0.264-0.238-0.54-0.456-0.852-0.64c-0.852-1.441-2.378-2.435-4.211-2.435c-2.691,0-4.92,2.186-4.92,4.92
	c0,1.001,0.317,1.917,0.847,2.668c0.422,0.607,15.565,15.493,15.565,15.493h-1.37l-6.986,6.989h-31.811
	c-0.253-0.233-0.52-0.443-0.822-0.625c-0.86-1.434-2.383-2.429-4.227-2.429c-2.685,0-4.913,2.191-4.913,4.915
	c0,0.835,0.225,1.62,0.617,2.301c0.443,0.773,31.186,31.572,31.186,31.572l-15.35,15.365c-0.568-0.238-1.216-0.407-1.905-0.407
	c-2.732,0-4.923,2.227-4.923,4.918c0,0.906,0.256,1.748,0.689,2.465c0.435,0.701,81.946,82.163,82.452,82.542l-0.576,0.576
	c-0.561-0.182-1.124-0.3-1.748-0.3c-2.678,0-4.915,2.204-4.915,4.915c0,1.014,0.323,1.925,0.868,2.683
	c0.161,0.225,51.354,51.461,114.647,114.765C408.817,482.673,482.125,409.595,504.709,316.631z"/>
<g>
	<path style="fill:#FFFFFF;" d="M256.392,128.522c1.787-0.737,3.059-2.486,3.059-4.552c0-2.721-2.194-4.923-4.92-4.923
		c-2.693,0-4.882,2.202-4.882,4.923c0,2.066,1.265,3.814,3.052,4.552v13.048l-16.468,14.556V184.3h3.694v-26.522l16.466-14.546
		L256.392,128.522L256.392,128.522z M254.531,126.428c-1.344,0-2.468-1.106-2.468-2.458c0-1.341,1.124-2.473,2.468-2.473
		c1.38,0,2.458,1.132,2.458,2.473C256.988,125.322,255.91,126.428,254.531,126.428z"/>
	<path style="fill:#FFFFFF;" d="M206.259,123.553c0-2.729-2.194-4.92-4.92-4.92c-2.703,0-4.931,2.191-4.931,4.92
		c0,2.739,2.227,4.925,4.931,4.925c0.607,0,1.155-0.108,1.664-0.317l13.204,13.189v42.947h3.689v-44.449l0,0l-14.134-14.172
		C206.088,125.051,206.259,124.321,206.259,123.553z M201.339,126.021c-1.354,0-2.465-1.114-2.465-2.468
		c0-1.344,1.111-2.452,2.465-2.452c1.341,0,2.455,1.106,2.455,2.452C203.794,124.908,202.68,126.021,201.339,126.021z"/>
	<path style="fill:#FFFFFF;" d="M296.269,184.3h3.686v-54.71c1.784-0.737,3.054-2.493,3.054-4.554c0-2.729-2.189-4.92-4.915-4.92
		c-2.698,0-4.933,2.191-4.933,4.92c0,2.061,1.316,3.817,3.105,4.554v54.71H296.269z M295.631,125.033
		c0-1.385,1.116-2.458,2.465-2.458c1.375,0,2.458,1.073,2.458,2.458c0,1.349-1.083,2.46-2.458,2.46
		C296.748,127.496,295.631,126.382,295.631,125.033z"/>
	<path style="fill:#FFFFFF;" d="M271.908,134.61c0-2.739-2.22-4.92-4.918-4.92c-2.729,0-4.923,2.181-4.923,4.92
		c0,2.683,2.191,4.915,4.923,4.915c0.625,0,1.265-0.161,1.82-0.374l7.429,7.444v37.701h3.686v-39.245l-8.435-8.445
		C271.734,135.972,271.908,135.322,271.908,134.61z M266.99,137.057c-1.375,0-2.465-1.111-2.465-2.447
		c0-1.359,1.091-2.468,2.465-2.468c1.349,0,2.465,1.111,2.465,2.468C269.455,135.946,268.339,137.057,266.99,137.057z"/>
	<path style="fill:#FFFFFF;" d="M256.269,184.3h3.699v-22.295l5.366-5.368c0.512,0.202,1.047,0.305,1.656,0.305
		c2.698,0,4.918-2.181,4.918-4.92c0-2.683-2.22-4.915-4.918-4.915c-2.729,0-4.923,2.235-4.923,4.915
		c0,0.781,0.174,1.513,0.499,2.145l-6.298,6.336L256.269,184.3L256.269,184.3z M266.99,149.573c1.349,0,2.465,1.103,2.465,2.447
		c0,1.357-1.116,2.473-2.465,2.473c-1.375,0-2.465-1.116-2.465-2.473C264.525,150.674,265.615,149.573,266.99,149.573z"/>
	<path style="fill:#FFFFFF;" d="M216.21,373.524l-9.341,9.339c-0.561-0.182-1.124-0.3-1.748-0.3c-2.675,0-4.915,2.204-4.915,4.915
		c0,2.698,2.24,4.91,4.915,4.91c2.739,0,4.931-2.212,4.931-4.91c0-0.753-0.164-1.482-0.479-2.127l10.327-10.324v-46.787h-3.689
		V373.524z M205.12,389.952c-1.334,0-2.458-1.111-2.458-2.473c0-1.382,1.124-2.45,2.458-2.45c1.398,0,2.465,1.068,2.465,2.45
		C207.583,388.844,206.515,389.952,205.12,389.952z"/>
	<path style="fill:#FFFFFF;" d="M276.239,355.272l-15.155,15.155c-0.527-0.174-1.091-0.33-1.72-0.33
		c-2.683,0-4.923,2.227-4.923,4.931c0,2.732,2.24,4.918,4.923,4.918c2.737,0,4.936-2.186,4.936-4.918
		c0-0.758-0.174-1.441-0.481-2.099l16.11-16.118v-28.57h-3.686v27.031H276.239z M259.364,377.48c-1.331,0-2.458-1.068-2.458-2.452
		c0-1.347,1.126-2.473,2.458-2.473c1.398,0,2.47,1.124,2.47,2.473C261.834,376.412,260.762,377.48,259.364,377.48z"/>
	<path style="fill:#FFFFFF;" d="M236.232,344.008l-5.345,5.345c-0.648-0.31-1.329-0.479-2.084-0.479c-2.724,0-4.92,2.197-4.92,4.923
		c0,2.703,2.194,4.931,4.92,4.931c2.691,0,4.915-2.227,4.915-4.931c0-0.632-0.108-1.196-0.333-1.761l6.541-6.49v-17.539h-3.694
		V344.008z M228.8,356.255c-1.341,0-2.458-1.111-2.458-2.458c0-1.385,1.119-2.458,2.458-2.458c1.352,0,2.46,1.073,2.46,2.458
		C231.263,355.146,230.152,356.255,228.8,356.255z"/>
	<path style="fill:#FFFFFF;" d="M248.02,383.885v-16.927l11.948-10.591v-28.127h-3.699v26.463l-11.948,10.578v18.606
		c-1.82,0.75-3.092,2.501-3.092,4.564c0,2.683,2.227,4.923,4.915,4.923c2.739,0,4.931-2.24,4.931-4.923
		C251.08,386.386,249.812,384.635,248.02,383.885z M246.147,390.899c-1.341,0-2.465-1.111-2.465-2.45
		c0-1.349,1.124-2.465,2.465-2.465c1.349,0,2.465,1.116,2.465,2.465C248.612,389.791,247.496,390.899,246.147,390.899z"/>
	<path style="fill:#FFFFFF;" d="M312.696,378.028c-0.73,0-1.426,0.141-2.022,0.443l-10.719-10.732v-39.498h-3.686v41.021
		l11.863,11.848c-0.246,0.556-0.358,1.18-0.358,1.805c0,2.739,2.184,4.918,4.923,4.918c2.691,0,4.918-2.179,4.918-4.918
		C317.614,380.216,315.387,378.028,312.696,378.028z M312.696,385.364c-1.347,0-2.465-1.073-2.465-2.45
		c0-1.354,1.119-2.473,2.465-2.473c1.341,0,2.465,1.119,2.465,2.473C315.162,384.292,314.04,385.364,312.696,385.364z"/>
	<path style="fill:#FFFFFF;" d="M382.81,226.691c0.625,0.236,1.27,0.407,1.987,0.407c2.724,0,4.91-2.227,4.91-4.915
		c0-2.732-2.186-4.931-4.91-4.931c-2.747,0-4.931,2.199-4.931,4.931c0,0.632,0.156,1.28,0.379,1.851l-10.67,10.662h-39.514v3.686
		h41.05L382.81,226.691z M384.799,219.717c1.334,0,2.45,1.08,2.45,2.465c0,1.344-1.116,2.458-2.45,2.458
		c-1.354,0-2.465-1.114-2.465-2.458C382.333,220.797,383.442,219.717,384.799,219.717z"/>
	<path style="fill:#FFFFFF;" d="M365.225,211.366h20.951c0.737,1.825,2.519,3.09,4.585,3.09c2.691,0,4.915-2.194,4.915-4.915
		c0-2.739-2.225-4.915-4.915-4.915c-2.066,0-3.848,1.265-4.585,3.098h-22.49l0,0h-0.008l-6.986,6.953h-26.624v3.681h28.127
		L365.225,211.366z M390.761,207.081c1.341,0,2.465,1.111,2.465,2.458c0,1.347-1.121,2.46-2.465,2.46
		c-1.39,0-2.465-1.114-2.465-2.46C388.296,208.192,389.371,207.081,390.761,207.081z"/>
	<path style="fill:#FFFFFF;" d="M390.17,310.077c-0.563,0-1.144,0.141-1.643,0.31l-15.67-15.662h-41.029v3.694h39.501l14.474,14.433
		c-0.338,0.668-0.556,1.354-0.556,2.143c0,2.729,2.225,4.915,4.923,4.915c2.732,0,4.931-2.186,4.931-4.915
		C395.1,312.305,392.904,310.077,390.17,310.077z M390.17,317.453c-1.341,0-2.473-1.075-2.473-2.458c0-1.349,1.129-2.46,2.473-2.46
		c1.382,0,2.458,1.111,2.458,2.46C392.627,316.378,391.552,317.453,390.17,317.453z"/>
	<path style="fill:#FFFFFF;" d="M352.701,281.48c2.737,0,4.923-2.179,4.923-4.91c0-2.732-2.186-4.923-4.923-4.923
		c-2.061,0-3.814,1.27-4.544,3.041h-16.33v3.702h16.33C348.887,280.215,350.643,281.48,352.701,281.48z M352.701,274.097
		c1.347,0,2.465,1.124,2.465,2.473s-1.119,2.452-2.465,2.452c-1.341,0-2.46-1.103-2.46-2.452
		C350.241,275.223,351.36,274.097,352.701,274.097z"/>
	<path style="fill:#FFFFFF;" d="M392.402,268.621c-2.071,0-3.863,1.277-4.593,3.062h-20.247l-16.968-16.975h-18.767v3.689h17.224
		l17.016,16.973h21.742c0.73,1.789,2.522,3.062,4.593,3.062c2.691,0,4.918-2.186,4.918-4.89
		C397.32,270.817,395.092,268.621,392.402,268.621z M392.402,275.968c-1.39,0-2.465-1.068-2.465-2.424
		c0-1.382,1.075-2.458,2.465-2.458c1.341,0,2.46,1.075,2.46,2.458C394.862,274.9,393.746,275.968,392.402,275.968z"/>
	<path style="fill:#FFFFFF;" d="M153.316,211.602c-2.691,0-4.915,2.186-4.915,4.92c0,2.732,2.227,4.915,4.915,4.915
		c2.107,0,3.863-1.254,4.593-3.085h31.47v-3.681h-31.47C157.179,212.877,155.423,211.602,153.316,211.602z M153.316,218.988
		c-1.341,0-2.458-1.119-2.458-2.465c0-1.339,1.119-2.458,2.458-2.458c1.393,0,2.465,1.121,2.465,2.458
		C155.781,217.869,154.711,218.988,153.316,218.988z"/>
	<path style="fill:#FFFFFF;" d="M131.131,292.772c-0.568-0.238-1.216-0.407-1.905-0.407c-2.732,0-4.923,2.227-4.923,4.918
		c0,2.732,2.191,4.931,4.923,4.931c2.693,0,4.923-2.196,4.923-4.931c0-0.648-0.161-1.308-0.389-1.869l16.975-17.021h36.109v-3.704
		h-37.65L131.131,292.772z M129.226,299.748c-1.39,0-2.465-1.083-2.465-2.465c0-1.341,1.075-2.46,2.465-2.46
		c1.341,0,2.465,1.119,2.465,2.46C131.692,298.665,130.568,299.748,129.226,299.748z"/>
	<path style="fill:#FFFFFF;" d="M156.301,289.492c0.253-0.617,0.448-1.313,0.448-2.043c0-2.698-2.227-4.931-4.923-4.931
		c-2.724,0-4.915,2.232-4.915,4.931c0,2.724,2.191,4.915,4.915,4.915c0.609,0,1.231-0.12,1.761-0.307l6.408,6.362h25.774v-3.694
		H161.49L156.301,289.492z M151.828,289.907c-1.385,0-2.458-1.075-2.458-2.458c0-1.354,1.075-2.465,2.458-2.465
		c1.354,0,2.46,1.111,2.46,2.465C154.289,288.832,153.183,289.907,151.828,289.907z"/>
	<path style="fill:#FFFFFF;" d="M164.974,238.38h21.665v-3.697h-23.204l-6.986,6.989h-32.266c-0.737-1.787-2.486-3.054-4.595-3.054
		c-2.685,0-4.913,2.191-4.913,4.915c0,2.685,2.227,4.931,4.913,4.931c2.109,0,3.858-1.321,4.595-3.11h33.802L164.974,238.38z
		 M119.588,245.993c-1.344,0-2.455-1.111-2.455-2.46c0-1.39,1.111-2.465,2.455-2.465c1.393,0,2.465,1.075,2.465,2.465
		C122.053,244.884,120.98,245.993,119.588,245.993z"/>
	<path style="fill:#FFFFFF;" d="M132.531,251.62c-2.732,0-4.92,2.217-4.92,4.928c0,2.732,2.186,4.918,4.92,4.918
		c2.071,0,3.814-1.265,4.554-3.069h52.296v-3.689h-52.296C136.346,252.872,134.602,251.62,132.531,251.62z M132.531,258.993
		c-1.344,0-2.46-1.083-2.46-2.447c0-1.359,1.116-2.473,2.46-2.473c1.352,0,2.46,1.114,2.46,2.473
		C134.991,257.91,133.883,258.993,132.531,258.993z"/>
</g>
<g>
	<path style="fill:#FF8E31;" d="M214.172,189.082v-9.692c0-0.758,0.307-1.503,0.829-2.038c0.576-0.558,1.313-0.829,2.04-0.829h2.028
		c0.773,0,1.495,0.271,2.03,0.829c0.532,0.532,0.837,1.265,0.837,2.038v9.692H214.172z"/>
	<path style="fill:#FF8E31;" d="M234.194,189.082v-9.692c0-0.758,0.31-1.503,0.84-2.038c0.53-0.558,1.249-0.829,2.028-0.829h2.03
		c0.776,0,1.459,0.271,2.03,0.829c0.527,0.532,0.832,1.28,0.832,2.038v9.692H234.194z"/>
	<path style="fill:#FF8E31;" d="M254.226,189.082v-9.692c0-0.773,0.264-1.503,0.835-2.038c0.527-0.558,1.257-0.829,2.022-0.829h2.03
		c0.735,0,1.467,0.271,1.999,0.829c0.563,0.532,0.829,1.265,0.829,2.038v9.692H254.226z"/>
	<path style="fill:#FF8E31;" d="M274.204,189.082v-9.692c0-0.773,0.315-1.503,0.835-2.038c0.568-0.558,1.262-0.829,2.03-0.829h2.03
		c0.765,0,1.51,0.271,2.035,0.829c0.527,0.532,0.837,1.28,0.837,2.038v9.692H274.204z"/>
	<path style="fill:#FF8E31;" d="M294.228,189.082v-9.692c0-0.773,0.315-1.503,0.842-2.038c0.52-0.558,1.257-0.829,2.03-0.829h2.03
		c0.765,0,1.452,0.271,2.028,0.829c0.527,0.532,0.837,1.265,0.837,2.038v9.692H294.228z"/>
	<path style="fill:#FF8E31;" d="M301.996,323.991v9.736c0,0.781-0.31,1.459-0.837,2.03c-0.576,0.52-1.262,0.842-2.028,0.842h-2.03
		c-0.773,0-1.51-0.31-2.03-0.842c-0.527-0.571-0.842-1.249-0.842-2.03v-9.736H301.996z"/>
	<path style="fill:#FF8E31;" d="M281.974,323.991v9.736c0,0.781-0.31,1.459-0.837,2.03c-0.525,0.52-1.27,0.842-2.035,0.842h-2.03
		c-0.768,0-1.462-0.323-2.03-0.842c-0.52-0.571-0.835-1.249-0.835-2.03v-9.736H281.974z"/>
	<path style="fill:#FF8E31;" d="M261.942,323.991v9.736c0,0.781-0.266,1.459-0.829,2.03c-0.532,0.52-1.265,0.842-1.999,0.842h-2.03
		c-0.765,0-1.495-0.323-2.022-0.842c-0.573-0.571-0.835-1.249-0.835-2.03v-9.736H261.942z"/>
	<path style="fill:#FF8E31;" d="M241.951,323.991v9.736c0,0.781-0.305,1.459-0.832,2.03c-0.571,0.532-1.254,0.842-2.03,0.842h-2.03
		c-0.776,0-1.495-0.323-2.035-0.842c-0.52-0.571-0.832-1.257-0.832-2.03v-9.736H241.951z"/>
	<path style="fill:#FF8E31;" d="M221.932,323.991v9.736c0,0.781-0.302,1.459-0.837,2.03c-0.532,0.532-1.257,0.842-2.03,0.842h-2.028
		c-0.727,0-1.464-0.31-2.025-0.842c-0.532-0.571-0.845-1.249-0.845-2.03v-9.736H221.932z"/>
	<path style="fill:#FF8E31;" d="M325.535,212.669h9.736c0.773,0,1.454,0.261,2.03,0.832c0.527,0.532,0.842,1.257,0.842,2.022v1.992
		c0,0.776-0.315,1.513-0.842,2.033c-0.576,0.576-1.257,0.842-2.03,0.842h-9.736L325.535,212.669L325.535,212.669z"/>
	<path style="fill:#FF8E31;" d="M325.535,232.645h9.736c0.773,0,1.454,0.31,2.03,0.842c0.527,0.561,0.842,1.257,0.842,2.028v2.033
		c0,0.773-0.315,1.503-0.842,2.035c-0.576,0.512-1.257,0.829-2.03,0.829h-9.736L325.535,232.645L325.535,232.645z"/>
	<path style="fill:#FF8E31;" d="M325.535,252.677h9.736c0.773,0,1.467,0.317,2.03,0.832c0.527,0.53,0.842,1.265,0.842,2.033v2.038
		c0,0.755-0.315,1.449-0.85,2.025c-0.556,0.535-1.249,0.829-2.022,0.829h-9.736L325.535,252.677L325.535,252.677z"/>
	<path style="fill:#FF8E31;" d="M325.535,272.666h9.736c0.773,0,1.454,0.31,2.022,0.837c0.535,0.561,0.85,1.306,0.85,2.035v2.03
		c0,0.76-0.315,1.49-0.85,2.022c-0.568,0.571-1.249,0.842-2.022,0.842h-9.736L325.535,272.666L325.535,272.666z"/>
	<path style="fill:#FF8E31;" d="M325.535,292.695h9.736c0.773,0,1.454,0.302,2.022,0.837c0.535,0.525,0.85,1.254,0.85,2.022v2.035
		c0,0.768-0.315,1.498-0.842,2.017c-0.576,0.54-1.257,0.842-2.03,0.842h-9.736L325.535,292.695L325.535,292.695z"/>
	<path style="fill:#FF8E31;" d="M190.625,300.449h-9.692c-0.776,0-1.5-0.302-2.028-0.842c-0.568-0.52-0.886-1.249-0.886-2.017
		v-2.035c0-0.768,0.317-1.498,0.886-2.022c0.527-0.535,1.249-0.837,2.028-0.837h9.692V300.449z"/>
	<path style="fill:#FF8E31;" d="M190.625,280.433h-9.692c-0.776,0-1.5-0.271-2.028-0.85c-0.568-0.525-0.886-1.254-0.886-2.028
		v-2.017c0-0.73,0.317-1.475,0.886-2.035c0.527-0.527,1.249-0.845,2.028-0.845h9.692V280.433z"/>
	<path style="fill:#FF8E31;" d="M190.625,260.431h-9.692c-0.776,0-1.5-0.294-2.028-0.829c-0.568-0.576-0.886-1.27-0.886-2.038
		v-2.022c0-0.768,0.317-1.503,0.886-2.033c0.527-0.517,1.249-0.832,2.028-0.832h9.692V260.431z"/>
	<path style="fill:#FF8E31;" d="M190.625,240.415h-9.692c-0.776,0-1.5-0.317-2.028-0.829c-0.568-0.532-0.886-1.265-0.886-2.035
		v-2.033c0-0.768,0.317-1.464,0.886-2.028c0.527-0.532,1.249-0.842,2.028-0.842h9.692V240.415z"/>
	<path style="fill:#FF8E31;" d="M190.625,220.39h-9.692c-0.776,0-1.5-0.266-2.028-0.842c-0.568-0.52-0.886-1.257-0.886-2.033v-1.992
		c0-0.765,0.317-1.49,0.886-2.022c0.527-0.573,1.249-0.832,2.028-0.832h9.692V220.39z"/>
</g>
<path style="fill:#283A4D;" d="M324.595,207.209l-17.18-17.152c-0.512-0.556-1.572-0.975-2.322-0.975h-94.026
	c-0.755,0-1.805,0.422-2.317,0.975l-17.185,17.152c-0.509,0.548-0.937,1.564-0.937,2.314v94.072c0,0.717,0.428,1.769,0.937,2.276
	l17.185,17.188c0.512,0.52,1.562,0.932,2.317,0.932h94.026c0.75,0,1.81-0.412,2.322-0.932l17.18-17.188
	c0.52-0.504,0.94-1.556,0.94-2.276v-94.072C325.535,208.773,325.115,207.757,324.595,207.209z"/>
<polygon style="fill:#A6B83D;" points="318.807,302.129 303.672,317.263 212.493,317.263 197.394,302.129 197.394,210.941 
	212.493,195.85 303.672,195.85 318.807,210.941 "/>
<polygon style="fill:#D0E070;" points="299.313,203.648 216.855,203.648 205.146,215.306 205.146,297.807 216.855,309.468 
	299.313,309.468 311.012,297.807 311.012,215.306 "/>
<path style="fill:#FFFFFF;" d="M239.076,246.333v-1.257c0-0.428,0.087-0.701,0.274-0.932c0.148-0.159,0.343-0.276,0.64-0.276
	c0.276,0,0.479,0.12,0.668,0.276c0.148,0.228,0.218,0.502,0.218,0.932v5.048c0,0.433-0.069,0.732-0.218,0.937
	c-0.189,0.164-0.389,0.292-0.668,0.292c-0.266,0-0.451-0.128-0.596-0.274c-0.189-0.154-0.279-0.448-0.315-0.835
	c-0.059-1.208-0.732-2.312-1.961-3.22c-1.664-1.267-3.579-1.928-5.696-1.928c-1.377,0-2.691,0.317-3.914,0.95
	c-0.952,0.456-1.654,0.98-2.23,1.636c-0.924,1.103-1.692,2.332-2.24,3.735c-0.397,0.991-0.62,2.125-0.62,3.389v3.185
	c0,2.662,1.006,5.038,2.964,7.017c1.92,2.01,4.211,2.97,6.784,2.97c1.551,0,2.929-0.343,4.165-0.983
	c1.229-0.689,2.419-1.736,3.574-3.09c0.259-0.307,0.509-0.443,0.822-0.443c0.266,0,0.456,0.056,0.596,0.253
	c0.184,0.141,0.253,0.361,0.253,0.584c0,0.338-0.312,0.837-0.909,1.518c-1.183,1.316-2.501,2.291-3.988,2.977
	c-1.449,0.691-2.959,1.006-4.477,1.006c-1.306,0-2.616-0.246-3.996-0.737c-1.011-0.392-1.861-0.85-2.557-1.39
	c-0.645-0.504-1.475-1.362-2.486-2.593c-0.963-1.242-1.651-2.381-2.02-3.397c-0.364-1.068-0.525-2.214-0.525-3.466v-3.686
	c0-1.777,0.471-3.564,1.454-5.453c0.945-1.825,2.248-3.272,3.901-4.26c1.654-1.019,3.438-1.51,5.384-1.51
	C234.34,243.308,236.941,244.347,239.076,246.333z M253.65,258.757v8.499h6.198c0.43,0,0.745,0.12,0.955,0.274
	c0.177,0.154,0.248,0.384,0.248,0.668c0,0.23-0.069,0.471-0.248,0.625c-0.21,0.202-0.525,0.279-0.955,0.279h-10.427
	c-0.435,0-0.755-0.077-0.919-0.279c-0.212-0.156-0.292-0.394-0.292-0.625c0-0.282,0.082-0.515,0.292-0.668
	c0.164-0.156,0.484-0.274,0.919-0.274h2.429v-21.563h-2.429c-0.435,0-0.755-0.069-0.919-0.253c-0.212-0.156-0.292-0.399-0.292-0.64
	c0-0.284,0.082-0.527,0.292-0.673c0.164-0.156,0.484-0.261,0.919-0.261h10.534c2.478,0,4.5,0.745,6.044,2.212
	c1.579,1.446,2.368,3.203,2.368,5.138c0,1.175-0.233,2.222-0.765,3.164c-0.499,0.914-1.103,1.654-1.828,2.179
	c-1.096,0.814-2.217,1.411-3.328,1.792c-0.837,0.246-1.889,0.407-3.131,0.407L253.65,258.757L253.65,258.757z M253.65,256.932h5.765
	c1.367,0,2.616-0.271,3.789-0.886c1.144-0.589,2.002-1.321,2.565-2.179c0.525-0.863,0.801-1.774,0.801-2.652
	c0-1.411-0.625-2.668-1.848-3.825c-1.224-1.137-2.739-1.7-4.623-1.7h-6.451v11.241H253.65z M292.836,245.696v15.137
	c0,2.527-0.886,4.654-2.578,6.374c-1.684,1.715-3.727,2.593-6.136,2.593c-1.608,0-3.021-0.346-4.27-1.06
	c-1.257-0.701-2.332-1.743-3.203-3.21c-0.863-1.39-1.306-2.993-1.306-4.698v-15.137h-1.533c-0.435,0-0.701-0.069-0.919-0.253
	c-0.161-0.156-0.287-0.399-0.287-0.64c0-0.284,0.128-0.527,0.31-0.699c0.195-0.136,0.463-0.236,0.899-0.236h6.707
	c0.428,0,0.701,0.105,0.906,0.261c0.177,0.148,0.256,0.389,0.256,0.673c0,0.241-0.077,0.484-0.256,0.64
	c-0.202,0.182-0.479,0.253-0.906,0.253h-3.369v15.137c0,1.958,0.689,3.686,2.043,5.069c1.39,1.377,3.005,2.079,4.854,2.079
	c1.196,0,2.304-0.287,3.259-0.812c1.011-0.535,1.866-1.362,2.578-2.522c0.75-1.137,1.121-2.414,1.121-3.812v-15.137h-3.336
	c-0.43,0-0.753-0.069-0.911-0.253c-0.205-0.156-0.294-0.399-0.294-0.64c0-0.284,0.09-0.527,0.294-0.673
	c0.161-0.156,0.481-0.261,0.911-0.261h6.671c0.428,0,0.742,0.105,0.947,0.261c0.174,0.148,0.261,0.389,0.261,0.673
	c0,0.241-0.084,0.484-0.261,0.64c-0.205,0.182-0.52,0.253-0.947,0.253h-1.505V245.696z"/>
<g>
</g>
<g>
</g>
<g>
</g>
<g>
</g>
<g>
</g>
<g>
</g>
<g>
</g>
<g>
</g>
<g>
</g>
<g>
</g>
<g>
</g>
<g>
</g>
<g>
</g>
<g>
</g>
<g>
</g>
</svg>
