<?xml version="1.0" encoding="iso-8859-1"?>
<!-- Generator: Adobe Illustrator 19.0.0, SVG Export Plug-In . SVG Version: 6.00 Build 0)  -->
<svg version="1.1" id="Layer_1" xmlns="http://www.w3.org/2000/svg" xmlns:xlink="http://www.w3.org/1999/xlink" x="0px" y="0px"
	 viewBox="0 0 512 512" style="enable-background:new 0 0 512 512;" xml:space="preserve">
<circle style="fill:#E1EFFA;" cx="256" cy="256" r="256"/>
<path style="fill:#BCD4E8;" d="M290.583,155.907c-0.128-0.131-0.302-0.294-0.43-0.422c-17.239-17.121-40.929-27.676-67.118-27.676
	c-52.595,0-95.224,42.634-95.224,95.219c0,24.627,9.367,47.124,24.748,64.031c0.044,0.084,0.131,0.131,0.212,0.21l6.019,6.021
	c0.092,0.09,0.125,0.166,0.212,0.21l197.816,197.852c60.334-25.879,108.71-74.271,134.569-134.613L290.583,155.907z"/>
<polygon style="fill:#5D6D7E;" points="281.116,295.834 287.416,302.136 294.781,309.463 297.62,312.323 312.317,297.615 
	295.839,281.111 "/>
<path style="fill:#FF8E31;" d="M327.304,297.518l50.716,50.714c3.814,3.804,6.182,9.085,6.167,14.894
	c0,5.819-2.353,11.095-6.167,14.915c-3.804,3.799-9.073,6.144-14.892,6.144c-5.816,0-11.08-2.345-14.894-6.157l-50.714-50.719
	L327.304,297.518z"/>
<path style="fill:#FECE59;" d="M320.305,304.527L320.305,304.527l4.122-4.129l50.721,50.721c3.203,3.205,4.964,7.468,4.961,12.004
	c0,4.549-1.766,8.819-4.961,12.029c-0.584,0.561-1.331,0.842-2.066,0.842c-0.753,0-1.495-0.282-2.074-0.85
	c-1.129-1.144-1.129-2.977,0-4.114c2.115-2.107,3.272-4.931,3.272-7.915c0.008-2.972-1.155-5.775-3.256-7.872L320.305,304.527z"/>
<g>
	<path style="fill:#34495E;" d="M297.518,327.309l29.786-29.793l-2.222-2.227c-1.341-1.347-3.174-2.163-5.212-2.163
		c-2.051,0-3.889,0.814-5.217,2.153l-19.369,19.379c-1.331,1.321-2.161,3.159-2.161,5.212c0,2.022,0.829,3.884,2.161,5.197
		L297.518,327.309z"/>
	<path style="fill:#34495E;" d="M127.811,223.03c0-52.58,42.634-95.219,95.224-95.219c52.595,0,95.227,42.642,95.227,95.219
		c0,52.595-42.637,95.227-95.227,95.24C170.445,318.257,127.811,275.625,127.811,223.03z"/>
</g>
<path style="fill:#5D6D7E;" d="M223.035,307.953c46.886,0,84.915-38.016,84.915-84.923c0-46.881-38.029-84.908-84.915-84.908
	c-46.894,0-84.918,38.024-84.918,84.908C138.117,269.937,176.141,307.953,223.035,307.953z"/>
<path style="fill:#CEE2F2;" d="M223.035,301.156c43.136,0,78.118-34.967,78.118-78.126c0-43.126-34.982-78.116-78.118-78.116
	s-78.121,34.99-78.121,78.116C144.914,266.186,179.891,301.156,223.035,301.156z"/>
<g>
	<path style="fill:#FFFFFF;" d="M225.091,157.74c-1.331-1.974-3.617-3.21-6.134-3.067c-10.783,0.655-20.974,3.692-30.287,9.098
		c-3.279,1.917-4.403,6.144-2.493,9.439c1.91,3.254,6.141,4.411,9.411,2.476c7.429-4.285,15.56-6.72,24.179-7.245
		c3.786-0.197,6.7-3.464,6.464-7.247C226.186,159.882,225.746,158.702,225.091,157.74z"/>
	<path style="fill:#FFFFFF;" d="M180.859,180.388c-0.366-0.55-0.845-1.06-1.37-1.495c-2.957-2.419-7.293-1.948-9.684,1.006
		c-7.037,8.64-11.881,19.005-14.019,30.036c-2.529,13.102-1.206,26.516,3.817,38.81c1.464,3.543,5.494,5.207,9.009,3.758
		c3.525-1.428,5.204-5.443,3.761-8.986c-4.006-9.802-5.046-20.508-3.011-30.966c1.664-8.806,5.532-17.075,11.146-23.969
		C182.461,186.184,182.513,182.815,180.859,180.388z"/>
</g>
<g>
</g>
<g>
</g>
<g>
</g>
<g>
</g>
<g>
</g>
<g>
</g>
<g>
</g>
<g>
</g>
<g>
</g>
<g>
</g>
<g>
</g>
<g>
</g>
<g>
</g>
<g>
</g>
<g>
</g>
</svg>
