<?xml version="1.0" encoding="iso-8859-1"?>
<!-- Generator: Adobe Illustrator 19.0.0, SVG Export Plug-In . SVG Version: 6.00 Build 0)  -->
<svg version="1.1" id="Layer_1" xmlns="http://www.w3.org/2000/svg" xmlns:xlink="http://www.w3.org/1999/xlink" x="0px" y="0px"
	 viewBox="0 0 512 512" style="enable-background:new 0 0 512 512;" xml:space="preserve">
<circle style="fill:#0575A5;" cx="256" cy="256" r="256"/>
<path style="fill:#025E90;" d="M511.306,273.894L392.105,154.706c-0.085-0.084-0.164-0.212-0.251-0.294l-0.947-0.95
	c-1.032-0.906-2.358-1.408-3.799-1.408H152.612c-3.308,0-5.99,2.726-5.99,5.993v72.753h-18.716c-4.959,0-9.009,4.05-9.009,9.004
	v111.132c0,2.15,0.791,4.137,2.028,5.704c0.044,0,0.044,0,0.044,0.036l1.193,1.203c0.051,0,0.051,0.044,0.051,0.044l153.272,153.265
	C401.851,501.668,502.559,400.474,511.306,273.894z"/>
<polygon style="fill:#E1EFFA;" points="301.952,355.139 237.719,355.139 245.873,315.438 293.788,315.438 "/>
<polygon style="fill:#B6D4ED;" points="301.952,355.139 293.788,315.438 245.873,315.438 285.578,355.139 "/>
<rect x="220.518" y="355.149" style="fill:#F2F9FF;" width="98.621" height="4.813"/>
<path style="fill:#34495E;" d="M152.586,152.054c-3.287,0-5.983,2.703-5.983,5.993v151.391c0,3.302,2.696,6.001,5.983,6.001h234.511
	c3.297,0,6.008-2.698,6.008-6.001V158.047c0-3.29-2.711-5.993-6.008-5.993H152.586z"/>
<rect x="159.053" y="164.506" style="fill:#FFFFFF;" width="221.594" height="138.47"/>
<rect x="168.274" y="172.262" style="fill:#FF8E31;" width="61.304" height="18.373"/>
<g>
	<rect x="239.206" y="172.262" style="fill:#E1EFFA;" width="133.709" height="18.373"/>
	<rect x="166.81" y="275.917" style="fill:#E1EFFA;" width="206.08" height="6.075"/>
	<rect x="166.81" y="289.178" style="fill:#E1EFFA;" width="206.08" height="6.047"/>
</g>
<g>
	<rect x="166.81" y="233.779" style="fill:#D0E070;" width="61.304" height="34.975"/>
	<rect x="239.206" y="233.779" style="fill:#D0E070;" width="61.299" height="34.975"/>
	<rect x="311.578" y="233.779" style="fill:#D0E070;" width="61.312" height="34.975"/>
</g>
<rect x="166.81" y="197.811" style="fill:#B8D1E6;" width="206.08" height="28.774"/>
<path style="fill:#2E445C;" d="M272.179,315.443H152.576c-3.277,0-5.965-2.714-5.965-6.016v-81.229h12.442v74.775h100.659
	L272.179,315.443z"/>
<path style="fill:#E1EFFA;" d="M259.712,302.976H159.053v-74.778h21.146c3.046,0,5.837,1.152,7.885,3.149
	c0.205,0.128,0.384,0.333,0.563,0.563l1.869,1.869H166.81v34.972h58.675l7.168,7.168H166.81v6.093h71.936l7.168,7.168H166.81v6.042
	h85.146L259.712,302.976z"/>
<polygon style="fill:#B8D26E;" points="225.485,268.749 166.81,268.749 166.81,233.779 190.515,233.779 "/>
<g>
	<polygon style="fill:#C7E0F4;" points="238.746,282.01 166.81,282.01 166.81,275.917 232.653,275.917 	"/>
	<polygon style="fill:#C7E0F4;" points="251.955,295.219 166.81,295.219 166.81,289.178 245.914,289.178 	"/>
</g>
<path style="fill:#34495E;" d="M127.898,359.949c-4.946,0-9.001-4.047-9.001-9.014v-111.15c0-4.951,4.055-9.011,9.001-9.011h52.283
	c4.941,0,9.001,4.058,9.001,9.011v111.153c0,4.964-4.06,9.014-9.001,9.014h-52.283V359.949z"/>
<g>
	<path style="fill:#283A4D;" d="M161.828,350.643c0,1.18-0.95,2.15-2.145,2.15h-11.29c-1.172,0-2.153-0.97-2.153-2.15v-0.906
		c0-1.172,0.98-2.155,2.153-2.155h11.29c1.198,0,2.145,0.983,2.145,2.155V350.643z"/>
	<path style="fill:#283A4D;" d="M156.641,240.53c0,1.434-1.147,2.598-2.588,2.598c-1.454,0-2.606-1.165-2.606-2.598
		c0-1.426,1.152-2.593,2.606-2.593C155.492,237.937,156.641,239.104,156.641,240.53z"/>
</g>
<path style="fill:#5D6D7E;" d="M155.259,240.53c0,0.678-0.527,1.221-1.208,1.221c-0.676,0-1.231-0.543-1.231-1.221
	c0-0.676,0.558-1.219,1.231-1.219C154.734,239.311,155.259,239.854,155.259,240.53z"/>
<rect x="124.006" y="250.317" style="fill:#FFFFFF;" width="60.083" height="90.138"/>
<rect x="128.64" y="254.925" style="fill:#FF8E31;" width="50.847" height="7.772"/>
<g>
	<rect x="128.64" y="327.654" style="fill:#E1EFFA;" width="50.847" height="2.547"/>
	<rect x="128.64" y="333.261" style="fill:#E1EFFA;" width="50.847" height="2.547"/>
</g>
<rect x="128.64" y="284.774" style="fill:#D0E070;" width="50.847" height="39.828"/>
<rect x="128.64" y="265.728" style="fill:#B8D1E6;" width="50.847" height="16.028"/>
<g>
</g>
<g>
</g>
<g>
</g>
<g>
</g>
<g>
</g>
<g>
</g>
<g>
</g>
<g>
</g>
<g>
</g>
<g>
</g>
<g>
</g>
<g>
</g>
<g>
</g>
<g>
</g>
<g>
</g>
</svg>
